<svg xmlns="http://www.w3.org/2000/svg" xmlns:xlink="http://www.w3.org/1999/xlink" version="1.1" x="0px" y="0px" viewBox="0 0 100 125" enable-background="new 0 0 100 100" xml:space="preserve"><path d="M81.72,56.352c2.312,0,6.684-0.992,6.684-4.751c0-3.75-4.354-4.747-6.754-4.747c-0.005,0-0.01,0-0.015,0  c-0.019,0.002-0.037,0.001-0.057,0.002v-1.795h1.841c0.488,0,0.884-0.396,0.884-0.884v-3.021c0-0.488-0.396-0.884-0.884-0.884H77.97  c-0.488,0-0.884,0.396-0.884,0.884v3.021c0,0.488,0.396,0.884,0.884,0.884h1.841v1.663c-1.905-0.402-3.575-1.468-3.596-1.482  l-0.088-0.05c-4.216-2.079-7.078-2.514-8.737-2.514c-0.738,0-1.196,0.087-1.391,0.134c-4.805,0.553-9.583,0.833-14.203,0.833  c-5.88,0-10.188-0.453-12.503-0.696c-0.648-0.068-1.155-0.122-1.516-0.147c-0.483-0.034-1.076-0.123-1.704-0.216  c-1.175-0.174-2.506-0.372-3.942-0.372c-2.337,0-4.285,0.542-5.955,1.655c-0.187,0.125-0.372,0.242-0.556,0.355v-0.046  c0-0.488-0.396-0.884-0.884-0.884h-1.76v-2.137c0-0.488-0.396-0.884-0.884-0.884h-5.449c-0.488,0-0.884,0.396-0.884,0.884v3.021  c0,0.488,0.396,0.884,0.884,0.884h0.488v1.754c-2.069,0.283-3.592,0.971-4.54,2.058c-0.999,1.145-1.016,2.336-0.99,2.728  c-0.026,0.392-0.009,1.583,0.99,2.728c0.948,1.086,2.471,1.775,4.54,2.059v1.957h-0.488c-0.488,0-0.884,0.395-0.884,0.883v3.021  c0,0.488,0.396,0.883,0.884,0.883h5.449c0.488,0,0.884-0.395,0.884-0.883v-2.137h1.76c0.488,0,0.884-0.396,0.884-0.885v-0.25  c0.184,0.115,0.369,0.232,0.556,0.355c1.67,1.115,3.619,1.656,5.956,1.656c0.502,0,1.02-0.025,1.585-0.074  c0.842-0.074,1.644-0.193,2.351-0.299c0.63-0.092,1.225-0.182,1.709-0.217c0.36-0.023,0.868-0.078,1.516-0.146  c2.315-0.242,6.624-0.695,12.503-0.695c4.619,0,9.398,0.279,14.203,0.832c0.194,0.047,0.652,0.135,1.391,0.135  c1.659,0,4.521-0.436,8.737-2.516l0.088-0.049c0.021-0.014,1.691-1.076,3.596-1.48v1.865H77.97c-0.488,0-0.884,0.395-0.884,0.883  v3.021c0,0.488,0.396,0.883,0.884,0.883h5.449c0.488,0,0.884-0.395,0.884-0.883v-3.021c0-0.488-0.396-0.883-0.884-0.883h-1.841  v-2.002C81.626,56.346,81.664,56.348,81.72,56.352z M78.854,42.041h3.682v1.252h-3.682V42.041z M82.535,61.363h-3.682v-1.252h3.682  V61.363z M23.853,45.062v0.137c-0.856,0.416-1.638,0.718-2.301,0.936v-1.073h0.541H23.853z M17.528,42.041h3.681v1.252h-3.681  V42.041z M18.9,45.062h0.884v1.543c-0.172,0.033-0.298,0.053-0.355,0.062c-0.183,0-0.352,0.011-0.528,0.017V45.062z M18.9,56.52  c0.177,0.004,0.345,0.016,0.528,0.016c0.059,0.008,0.185,0.029,0.356,0.061v1.748H18.9V56.52z M21.209,61.363h-3.681v-1.252h3.251  h0.43V61.363z M23.853,58.344h-1.76h-0.541v-1.277c0.663,0.219,1.444,0.521,2.301,0.936V58.344z M27.158,57.861  c-4-2.666-7.429-3.072-7.574-3.09l-0.098-0.004c-3.4,0-4.885-0.852-5.531-1.566c-0.657-0.727-0.591-1.465-0.59-1.48l0.012-0.121  l-0.011-0.104c-0.003-0.031-0.068-0.77,0.588-1.496c0.646-0.714,2.13-1.566,5.531-1.566l0.098-0.005  c0.145-0.016,3.574-0.423,7.574-3.089c1.37-0.913,2.997-1.357,4.974-1.357c0.334,0,0.665,0.013,0.991,0.034l4.493,7.583l-4.5,7.584  c-0.34,0.021-0.67,0.037-0.984,0.037C30.156,59.221,28.528,58.775,27.158,57.861z M75.303,56.445  c-4.093,2.01-6.713,2.311-7.913,2.311c-0.645,0-0.971-0.084-0.972-0.084l-0.155-0.031c-4.893-0.566-9.76-0.854-14.467-0.854  c-5.972,0-10.341,0.459-12.688,0.707c-0.623,0.064-1.11,0.117-1.457,0.143c-0.552,0.039-1.179,0.131-1.843,0.23  c-0.155,0.023-0.327,0.047-0.491,0.07l4.086-6.886c0.165-0.278,0.166-0.624,0-0.901l-4.079-6.886  c0.164,0.024,0.331,0.047,0.489,0.071c0.663,0.098,1.288,0.191,1.838,0.23c0.347,0.025,0.834,0.076,1.457,0.142  c2.347,0.247,6.715,0.707,12.688,0.707c4.707,0,9.575-0.287,14.467-0.852l0.144-0.028c0.004-0.001,0.329-0.087,0.983-0.087  c1.2,0,3.82,0.301,7.913,2.312c0.401,0.252,3.115,1.887,5.868,1.887c0.211,0,0.424-0.009,0.548-0.026  c0.049,0,4.916,0.048,4.916,2.982c0,2.935-4.867,2.983-4.829,2.987C78.865,54.299,75.734,56.174,75.303,56.445z M57.312,55.355  c0,0.488-0.396,0.885-0.884,0.885h-9.997c-0.488,0-0.884-0.396-0.884-0.885s0.396-0.883,0.884-0.883h9.997  C56.916,54.473,57.312,54.867,57.312,55.355z M45.011,55.355c0,0.449-0.363,0.811-0.811,0.811c-0.448,0-0.811-0.361-0.811-0.811  c0-0.447,0.362-0.811,0.811-0.811C44.648,54.545,45.011,54.908,45.011,55.355z M81.697,52.635c-0.1,0.16-0.276,0.254-0.459,0.254  c-0.05,0-0.101-0.007-0.15-0.021c-0.233-0.066-0.394-0.279-0.394-0.521v-1.491c0-0.242,0.16-0.454,0.394-0.521  c0.231-0.067,0.479,0.027,0.609,0.233c0.116,0.186,0.803,0.419,1.315,0.497c0.267,0.039,0.461,0.268,0.461,0.535  s-0.194,0.496-0.461,0.537C82.433,52.226,81.805,52.463,81.697,52.635z"/></svg>