<svg xmlns="http://www.w3.org/2000/svg" xmlns:xlink="http://www.w3.org/1999/xlink" version="1.1" x="0px" y="0px" viewBox="0 0 100 125" enable-background="new 0 0 100 100" xml:space="preserve"><g><path d="M81.773,68.51V51h7.315l-4.935-7.196h4.935l-5.122-7.47h5.122l-9.89-14.423L69.103,36.334h5.229l-5.229,7.47h5.037   L69.103,51h7.338v17.51h-5.848l-8.279-9.636h6.97l-3.606-5.26h3.606l-3.743-5.458h3.743l-7.736-11.283l-7.898,11.283h3.821   l-1.96,2.8l-4.19-4.876l4.807-5.594l-1.518-1.304L50,44.545l-4.608-5.363l-1.517,1.304l4.806,5.593L32.973,64.361V52.225h7.315   l-4.935-7.196h4.935l-5.122-7.47h5.122l-9.89-14.423l-4.501,6.431l-5.249-7.655L10.551,36.334h5.229l-5.229,7.47h5.038L10.551,51   h7.338v17.51H7.5v2h84v-2H81.773z M62.602,68.51h-2.583L50.01,57.662L39.715,68.51h-2.934l5.3-5.97l-1.495-1.328l-6.479,7.298   h-2.062L49,48.778v4h2v-4.001L67.956,68.51h-2.679l-6.48-7.298l-1.496,1.328L62.602,68.51z M57.297,68.51H42.472l7.518-7.92   L57.297,68.51z M57.49,51.614l3.821-5.458H57.49l4.039-5.771l3.957,5.771h-3.743l3.743,5.458H61.88l3.606,5.26h-4.892l-1.711-1.991   l2.288-3.269H57.49z M29.64,68.24V52.225h1.333v14.464L29.64,68.24z M30.381,26.647l6.11,8.911h-5.122l5.122,7.47h-4.935   l4.935,7.196h-6.485l-2.901-4.23l1.534-2.19h1.899l-3.433-5.006l1.725-2.464h1.708l-3.433-5.006L30.381,26.647z M14.393,49   l5.038-7.196h-5.038l5.229-7.47h-5.229l6.238-8.911l6.11,8.911h-5.122l5.122,7.47h-4.935L26.741,49h-3.518h-5.333H14.393z    M19.889,68.51V51h1.27l-0.857,1.225h0.921V68.51H19.889z M23.223,52.225h4.417V68.51h-4.417V52.225z M72.944,49l5.037-7.196   h-5.037l5.229-7.47h-5.229l6.237-8.911l6.11,8.911H80.17l5.122,7.47h-4.935L85.292,49h-3.519H76.44H72.944z M78.44,68.51V51h1.333   v17.51H78.44z"/><path d="M42.824,20.662c0,7.168,5.832,13,13,13c6.427,0,11.765-4.692,12.804-10.828h5.039v-2h-4.852   c0.001-0.058,0.009-0.114,0.009-0.172c0-7.168-5.832-13-13-13c-5.203,0-9.689,3.08-11.765,7.505H27.333v2h15.981   C43.003,18.281,42.824,19.45,42.824,20.662z M55.824,9.662c6.065,0,11,4.935,11,11c0,0.058-0.008,0.114-0.009,0.172H52.586v2   h14.021c-1.011,5.028-5.46,8.828-10.782,8.828c-6.065,0-11-4.935-11-11c0-1.223,0.209-2.395,0.579-3.495h8.058v-2H46.31   C48.214,11.882,51.761,9.662,55.824,9.662z"/><path d="M61.223,77.777c-0.806-1.941-3.145-2.517-3.409-2.576l-0.29-0.065l-7.071,2.642l-7.071-2.642l-0.29,0.065   c-0.264,0.06-2.604,0.635-3.409,2.576c-0.501,1.21-0.271,2.59,0.684,4.101l0.05,0.079c-0.608,0.746-0.988,1.685-0.988,2.72   c0,2.39,1.944,4.333,4.333,4.333c0.798,0,1.537-0.232,2.18-0.61l0.002,0.006l4.509-1.958l4.509,1.958l0.002-0.006   c0.644,0.378,1.382,0.61,2.181,0.61c2.39,0,4.333-1.943,4.333-4.333c0-1.038-0.377-1.977-0.992-2.714l0.054-0.085   C61.494,80.367,61.724,78.987,61.223,77.777z M57.638,77.229c0.544,0.181,1.449,0.613,1.739,1.32   c0.213,0.521,0.087,1.193-0.375,2.005l-10.973,4.766c0.032-0.211,0.065-0.423,0.065-0.643c0-1.329-0.614-2.506-1.56-3.302   L57.638,77.229z M41.527,78.549c0.29-0.708,1.198-1.141,1.739-1.32l4.327,1.616l-4.08,1.524c-0.479,0.027-0.938,0.121-1.363,0.292   l-0.248-0.107C41.44,79.742,41.314,79.069,41.527,78.549z M41.428,84.677c0-1.286,1.046-2.333,2.333-2.333s2.333,1.047,2.333,2.333   s-1.046,2.333-2.333,2.333S41.428,85.963,41.428,84.677z M57.144,87.01c-1.286,0-2.333-1.047-2.333-2.333   c0-0.043,0.008-0.084,0.01-0.126l3.807-1.653c0.516,0.425,0.85,1.06,0.85,1.779C59.477,85.963,58.43,87.01,57.144,87.01z"/><rect x="29.589" y="77.118" width="6.527" height="2"/><rect x="11.95" y="81.57" width="23.5" height="2"/><rect x="21.506" y="85.618" width="16.278" height="2"/><rect x="65.743" y="77.118" width="6.527" height="2"/><rect x="66.409" y="81.57" width="23.5" height="2"/><rect x="64.076" y="85.618" width="16.278" height="2"/></g></svg>