<svg xmlns="http://www.w3.org/2000/svg" xmlns:xlink="http://www.w3.org/1999/xlink" version="1.1" x="0px" y="0px" height="50" width="50" viewBox="0 0 100 125" enable-background="new 0 0 50 100" xml:space="preserve"><path fill="white" d="M27,51.7c-0.9,0.2-1.4,0.7-1.9,1.5c-0.5,0.8-0.4,2.9,0,3.5c0.5,0.7,1.4,1.2,2.6,1.2s12,0.4,13.3,0  s2.3-0.5,2.4-1.6c0.2-1.1,0.2-2-0.2-3.1c-0.4-1.1-0.6-1-2.2-1.5C39.4,51.2,27,51.7,27,51.7z"/><path fill="white" d="M40.8,65.3c0.8-0.1,1.2-0.6,1.7-1.4c0.5-0.8,0.4-2.8,0.1-3.4c-0.4-0.7-1.2-1.2-2.2-1.2s-10.8-0.4-12-0.1  c-1.2,0.3-2,0.5-2.1,1.5c-0.2,1-0.2,1.9,0.1,3c0.4,1,0.5,1,1.9,1.4S40.8,65.3,40.8,65.3z"/><path fill="white" d="M28.9,67.2c-0.7,0.2-1,0.7-1.4,1.4c-0.4,0.7-0.2,2.6,0.2,3.1c0.5,0.6,1.1,1,2.1,0.9c1-0.1,9.9-0.2,10.9-0.6  s1.7-0.6,1.8-1.6c0.1-1,0-1.8-0.4-2.7c-0.4-0.9-0.5-0.8-1.8-1.2C39,66.3,28.9,67.2,28.9,67.2z"/><path fill="white" d="M89.1,45.6H70.7c-0.6,0-1.1,0.2-1.6,0.6h-4c-0.9,0-1.7,0.5-2.4,1.3c-1,0.1-3,0.1-3.6-1c-0.8-1.6-2.9-2.5-5.3-3.9  c-2.4-1.4-5.4-6.7-5.6-8.6c-0.2-2-0.4-4.4-0.5-5.2c-0.1-0.8-0.3-1.2-0.5-1.4c-0.2-0.2-1-4.8-1-4.8s-0.4-1.3-2.9,0.7  c-2.5,2-1.7,5.6-1.4,7.9c0.3,2.2,2.2,8,0.1,10.7c-0.9,1.1-2.6,1.9-4.5,2.2c-1.8,0.2-9.4,0.3-12.8,0.1c-3.4-0.2-8.8,0-10.9,0  c-2.1,0-6.9,0.4-7.8,1.4s-1,2.5,0,3.4s2.1,1.2,4.8,1.2c2.6,0,17.7-0.5,21,0.5c0.2,0.1,0.4,0.1,0.7,0.1c1.6,0,8.4,0.2,9.4,0.4  c2,0.6,2.1,0.5,2.7,1.7c0.5,1.3,0.5,2.4,0.3,3.7c-0.2,1.3-1.3,1.5-2.9,2c-0.5,0.1-1.7,0.2-3.2,0.2c-1.6,0-1.6,0.2,0,0.3  c1.3,0.1,2.3,0.2,2.7,0.2c1.2,0,2,0.6,2.5,1.4c0.4,0.7,0.4,3.2-0.1,4c-0.6,0.9-1.1,1.2-2,1.4c0,0-0.3,0.2,0.1,0.3  c1.1,0.3,1.2,0.3,1.6,1.3c0.5,1.1,0.5,2.1,0.4,3.2c-0.1,1.1-0.9,1.4-2.2,1.9c-1.1,0.4-10,0.2-9.9,0.5c0.2,0.5,4,1,8.9,0.9  c4-0.1,8.7-0.8,10.7-1c0.4-0.1,1.9-0.4,2.2-0.6c0.4-0.2,1.5-0.7,2.7-1.2c1.3-0.5,3.9-0.4,5.6-0.2c0.9,1.8,2.1,2.8,3.4,2.8h1.4  c1.1,2.7,2.5,4.3,4.1,4.3h1.8c4.5-1.9,6.1-15.9,6.1-15.9c0,7.9-2.1,14.4-4.9,15.9H76c4.5-1.9,6.1-15.9,6.1-15.9  c0,7.9-2.1,14.4-4.9,15.9h2.3c4.5-1.9,6.1-15.9,6.1-15.9c0,7.9-2.1,14.4-4.9,15.9H83c4.5-1.9,6.1-15.9,6.1-15.9  c0,7.9-2.1,14.4-4.9,15.9h2.3c4.5-1.9,6.1-15.9,6.1-15.9c0,7.9-2.1,14.4-4.9,15.9h1.4c3.4,0,6.1-7.3,6.1-16.2S92.5,45.6,89.1,45.6z   M63.2,71c0.2,0,0.4,0.1,0.4,0.1c2.7,0,4.8-4.4,4.8-11.3c0-6-1.7-11.1-4-12.2c0.3-0.2,0.6-0.3,0.9-0.3h4.4c2.1,0,4.4,5.2,4.4,12.6  c0,7.4-2.3,12.6-4.4,12.6h-4.4C64.5,72.5,63.8,72,63.2,71z"/></svg>