<svg xmlns="http://www.w3.org/2000/svg" xmlns:xlink="http://www.w3.org/1999/xlink" version="1.1" x="0px" y="0px" viewBox="0 0 100 125" enable-background="new 0 0 100 100" xml:space="preserve" fill="#f9f9f9"><g><path d="M21.532,82.77c-0.293,0-0.589-0.092-0.84-0.282C9.485,73.996,2.313,61.132,1.015,47.192   c-0.071-0.766,0.492-1.445,1.258-1.517c0.758-0.073,1.445,0.492,1.517,1.258c1.226,13.164,8,25.313,18.584,33.332   c0.614,0.466,0.734,1.34,0.27,1.952C22.37,82.58,21.954,82.77,21.532,82.77L21.532,82.77z"/><path d="M32.758,89.134c-0.174,0-0.35-0.032-0.52-0.101c-2.104-0.847-4.174-1.85-6.151-2.98c-0.668-0.382-0.9-1.233-0.518-1.901   s1.234-0.899,1.902-0.518c1.867,1.067,3.821,2.014,5.807,2.814c0.714,0.287,1.06,1.099,0.773,1.812   C33.832,88.804,33.31,89.134,32.758,89.134L32.758,89.134z"/><path d="M45.08,92.291c-0.056,0-0.112-0.003-0.168-0.01c-2.341-0.281-4.679-0.731-6.948-1.338   c-0.744-0.199-1.185-0.963-0.987-1.705c0.199-0.745,0.966-1.186,1.706-0.987c2.143,0.572,4.35,0.998,6.561,1.263   c0.764,0.092,1.309,0.786,1.217,1.551C46.376,91.771,45.775,92.291,45.08,92.291L45.08,92.291z"/><g><circle cx="50.952" cy="42.486" r="3.684"/><path d="M50.952,46.182c-2.037,0-3.694-1.658-3.694-3.696c0-2.038,1.657-3.695,3.694-3.695c2.037,0,3.694,1.657,3.694,3.695    C54.646,44.524,52.989,46.182,50.952,46.182L50.952,46.182z M50.952,38.814c-2.024,0-3.67,1.647-3.67,3.672    c0,2.025,1.646,3.672,3.67,3.672c2.023,0,3.671-1.647,3.671-3.672C54.623,40.462,52.976,38.814,50.952,38.814L50.952,38.814z"/></g></g><g><path d="M92.233,50.163c-0.088,0-0.446,0.002-0.777,0.005c0.471-2.489,0.719-5.056,0.719-7.682   c0-22.766-18.456-41.223-41.223-41.223S9.729,19.72,9.729,42.486c0,22.767,18.457,41.223,41.223,41.223   c2.535,0,5.015-0.232,7.424-0.672c2.539,8.642,10.845,15.368,20.094,15.368c11.558,0,20.196-10.13,20.198-19.188V57.414   C98.668,52.653,95.432,50.163,92.233,50.163z M22.659,39.102C24.356,24.78,36.52,13.981,50.952,13.981   c4.587,0,9.146,1.118,13.186,3.232c0.568,0.297,0.788,0.999,0.491,1.567c-0.298,0.568-1.001,0.788-1.567,0.49   c-3.709-1.94-7.896-2.967-12.109-2.967c-13.256,0-24.428,9.918-25.987,23.071c-0.07,0.591-0.571,1.024-1.151,1.024   c-0.045,0-0.092-0.002-0.138-0.008C23.039,40.315,22.583,39.738,22.659,39.102z M22.324,44.871   c-0.061-0.766,0.511-1.44,1.277-1.504c0.776-0.061,1.435,0.516,1.5,1.268c0,0.005,0,0.005,0,0.009   c0.065,0.762-0.506,1.44-1.273,1.5c-0.037,0.005-0.079,0.005-0.116,0.005C22.993,46.149,22.384,45.587,22.324,44.871z    M24.604,51.175c-0.623,0-1.175-0.423-1.342-1.022c-0.103-0.363-0.056-0.734,0.129-1.059c0.182-0.326,0.483-0.558,0.841-0.655   c0.729-0.2,1.514,0.247,1.713,0.971c0.205,0.738-0.232,1.509-0.971,1.715C24.851,51.155,24.729,51.175,24.604,51.175z    M27.034,55.796c-0.196,0.097-0.4,0.144-0.613,0.144c-0.539,0-1.018-0.297-1.254-0.775c-0.004-0.01-0.004-0.014-0.009-0.023   c-0.153-0.329-0.177-0.701-0.056-1.045c0.116-0.353,0.367-0.636,0.702-0.799c0.195-0.098,0.399-0.144,0.613-0.144   c0.534,0,1.008,0.292,1.245,0.766c0.004,0.005,0.004,0.01,0.009,0.01C28.004,54.621,27.721,55.457,27.034,55.796z M30.466,59.084   c-0.051,0.372-0.242,0.696-0.543,0.925c-0.242,0.182-0.53,0.278-0.836,0.278c-0.441,0-0.85-0.204-1.115-0.558   c-0.46-0.613-0.334-1.491,0.278-1.95c0.246-0.187,0.534-0.279,0.836-0.279c0.441,0,0.85,0.205,1.115,0.559   C30.424,58.354,30.521,58.718,30.466,59.084z M33.545,63.613c-0.265,0.288-0.637,0.45-1.031,0.45c-0.339,0-0.669-0.125-0.924-0.354   c-0.004-0.004-0.009-0.008-0.014-0.008c-0.274-0.252-0.436-0.595-0.45-0.967c-0.019-0.377,0.111-0.729,0.362-1.003   c0.497-0.548,1.421-0.591,1.969-0.089C34.024,62.159,34.061,63.046,33.545,63.613z M50.952,57.618   c-8.357,0-15.132-6.774-15.132-15.132s6.775-15.132,15.132-15.132c8.356,0,15.133,6.775,15.133,15.132S59.309,57.618,50.952,57.618   z M94.488,79.217c-0.002,6.941-7,15.009-16.019,15.009c-8.898,0-16.704-7.776-16.706-16.641l-0.002-0.312l0.002-12.443   c0.198-1.746,0.994-2.633,2.361-2.633c0.008,0,0.014,0.002,0.021,0.002l0.451,0.069c0.985,0.294,1.676,1.469,1.676,2.536v9.381   h2.592V48.89c0-1.244,1.012-2.255,2.255-2.255c1.244,0,2.255,1.011,2.255,2.255v17.4h2.593V42.486c0-0.602,0.235-1.167,0.661-1.594   s0.991-0.661,1.594-0.661c1.243,0,2.255,1.012,2.255,2.255V66.29h2.592V47.192c0-1.244,1.012-2.255,2.254-2.255   c1.244,0,2.256,1.011,2.256,2.255v19.011h2.4v-9.606c0-1.242,1.012-2.254,2.255-2.254c1.369,0,2.255,1.205,2.255,3.071V79.217z"/></g></svg>