<?xml version="1.0" encoding="UTF-8" standalone="no"?>
<svg width="448px" height="448px" viewBox="0 0 448 448" version="1.1" xmlns="http://www.w3.org/2000/svg" xmlns:xlink="http://www.w3.org/1999/xlink">
    <!-- Generator: Sketch 44.1 (41455) - http://www.bohemiancoding.com/sketch -->
    <title>Pattern/Stars Copy</title>
    <defs></defs>
    <g id="Symbols" stroke="none" stroke-width="1" fill="none" fill-rule="evenodd">
        <g id="Pattern/Stars-Copy" fill="#f9f9f9">
            <path d="M314.070001,29.2270729 C312.274402,28.7660415 310.616926,29.3302889 310.386721,30.4794268 C310.156516,31.6262711 311.061222,34.8420223 312.907466,35.0713911 C314.75371,35.2984663 319.767574,35.1516702 319.947134,34.2341949 C320.126694,33.3190132 315.8656,29.6881043 314.070001,29.2270729" id="Fill-2"></path>
            <path d="M306.208386,361.67522 L308.455186,361.734855 C311.67115,359.844856 312.159185,355.670343 309.532546,352.461473 L308.586403,352.736716 L306.160043,353.440878 C303.894826,355.512079 303.277876,359.20033 304.783417,361.638521 L306.208386,361.67522 Z" id="Fill-4"></path>
            <path d="M91.0022846,30.3904087 C89.586524,29.1816349 87.1762778,29.0531884 85.6454147,30.1059914 L85.0261633,31.4065127 L84.7153866,32.0579203 C86.1771882,33.9272764 88.7785045,34.1176525 90.4935316,32.4845463 L90.8181206,31.154207 L91.0022846,30.3904087 Z" id="Fill-8"></path>
            <path d="M19.2401513,342.783713 C20.197804,342.561225 21.1830813,341.740085 21.7033446,340.902889 C21.8898106,340.604709 20.6559119,338.902792 20.2553553,338.962428 L19.2217349,339.118399 C17.9164727,339.980826 17.7069861,341.680449 18.7613249,342.896104 L19.2401513,342.783713 Z" id="Fill-24"></path>
            <path d="M72.0264451,204.688403 C72.9840978,204.465915 73.9693751,203.644775 74.4896384,202.807578 C74.6738024,202.509399 73.4399037,200.807482 73.039347,200.867118 L72.0080287,201.020795 C70.7050685,201.885516 70.495582,203.585139 71.5476187,204.800794 L72.0264451,204.688403 Z" id="Fill-30"></path>
            <path d="M414.458825,59.4079075 C415.658193,59.1510144 416.898998,58.1876652 417.55278,57.2082602 C417.782985,56.8573259 416.224497,54.8526422 415.720348,54.9214528 L414.417388,55.0980668 C412.780631,56.1095835 412.522801,58.1050924 413.851084,59.536354 L414.458825,59.4079075 Z" id="Fill-42"></path>
            <path d="M117.546969,292.119094 C115.247222,290.442408 111.455745,290.651134 109.114561,292.587007 L108.366395,294.78436 L107.981952,295.908268 C110.845702,298.791434 115.023923,298.683631 117.268421,295.66743 L117.441075,293.479251 L117.546969,292.119094 Z" id="Fill-55"></path>
            <path d="M382.650891,402.444913 L384.897692,402.504549 C388.115958,400.614549 388.60169,396.44233 385.977353,393.231166 L385.031211,393.506409 L382.602548,394.210571 C380.339633,396.281772 379.722684,399.970023 381.228225,402.408214 L382.650891,402.444913 Z" id="Fill-68"></path>
            <path d="M347.24979,271.270636 L348.644832,271.307335 C350.64071,270.13526 350.942278,267.543392 349.314729,265.550177 L348.727706,265.722203 L347.219864,266.158004 C345.813311,267.444763 345.431171,269.733864 346.365803,271.247699 L347.24979,271.270636 Z" id="Fill-70"></path>
            <path d="M146.447092,77.1598727 C145.031332,75.9510988 142.618783,75.8226523 141.090222,76.8754553 L140.468669,78.1759767 L140.160194,78.8273842 C141.621996,80.6967403 144.223312,80.8871164 145.938339,79.2540102 L146.260626,77.9236709 L146.447092,77.1598727 Z" id="Fill-72"></path>
            <path d="M227.377704,234.063637 C225.961944,232.854863 223.549395,232.726417 222.020834,233.77922 L221.399281,235.079741 L221.090806,235.731149 C222.550306,237.600505 225.151622,237.790881 226.866649,236.157775 L227.188936,234.827435 L227.377704,234.063637 Z" id="Fill-78"></path>
            <path d="M315.789161,167.690694 C316.746813,167.468207 317.732091,166.647066 318.250052,165.80987 C318.436518,165.51169 317.202619,163.809774 316.802062,163.869409 L315.768442,164.023087 C314.467784,164.887807 314.255995,166.58743 315.310334,167.803085 L315.789161,167.690694 Z" id="Fill-80"></path>
            <path d="M46.6838079,413.55203 C47.6391586,413.329543 48.62904,412.508402 49.1470012,411.671206 C49.3334672,411.373026 48.0995685,409.671109 47.6967098,409.730745 L46.6653915,409.886716 C45.3624313,410.749143 45.1506427,412.448766 46.2026795,413.664421 L46.6838079,413.55203 Z" id="Fill-84"></path>
            <path d="M210.399482,407.517886 C211.357135,407.295398 212.342412,406.471964 212.864977,405.637062 C213.049141,405.338882 211.815243,403.636965 211.414686,403.696601 L210.383368,403.850278 C209.075803,404.714999 208.868619,406.414622 209.918354,407.630277 L210.399482,407.517886 Z" id="Fill-92"></path>
            <path d="M412.399482,321.517886 C413.357135,321.295398 414.342412,320.471964 414.864977,319.637062 C415.049141,319.338882 413.815243,317.636965 413.414686,317.696601 L412.383368,317.850278 C411.075803,318.714999 410.868619,320.414622 411.918354,321.630277 L412.399482,321.517886 Z" id="Fill-92-Copy"></path>
            <path d="M417.85573,186.660597 C419.0574,186.403704 420.295903,185.440354 420.949685,184.458656 C421.182192,184.110015 419.621402,182.105331 419.117253,182.174142 L417.816595,182.350756 C416.177535,183.359979 415.922008,185.357782 417.250291,186.789043 L417.85573,186.660597 Z" id="Fill-94"></path>
            <path d="M230.327925,122.196391 C228.025876,120.519705 224.2344,120.72843 221.895517,122.664303 L221.147351,124.861657 L220.762908,125.985564 C223.624356,128.868731 227.802577,128.760927 230.049377,125.744727 L230.219729,123.554254 L230.327925,122.196391 Z" id="Fill-107"></path>
        </g>
    </g>
</svg>